# xmcd
#
# Track frame offsets:
#	182
#	34520
#	49662
#	61540
#	83880
#	100245
#	114995
#	126312
#	140715
#	153625
#	169382
#	181445
#	193432
#	207940
#
# Disc length: 2989 seconds
#
# Revision: 1
# Processed by: cddbd v1.5.2PL0 Copyright (c) Steve Scherf et al.
# Submitted via: audiograbber 1.83.01
#
DISCID=c90bab0e
DTITLE=Marcel Dadi - Hommage CD2
DYEAR=1997
DGENRE=Acoustic
TTITLE0=Jean-Félix Lalanne and Larry Coryell - Le Diset's Wedding
TTITLE1=Pietro Nobile - Nous Trois
TTITLE2=Claude Samard - Close To You
TTITLE3=Roland Dyens - Nous Trois
TTITLE4=Peter Finger - Je Te Veux
TTITLE5=Bluegrass Long Distance - Song For Doc
TTITLE6=Los Indios Tabajaras - La Marcellaise
TTITLE7=Thom Bresh and Lane Brody - La Marcellaise
TTITLE8=Jo Vurchio - My Old Friend Pat
TTITLE9=Gérard Toubiana - Robert The President
TTITLE10=Sacha Distel and Raymond Gimenes - Prière Pour Michel Lopez
TTITLE11=Claes Neeb - Cocktail Party
TTITLE12=Pierre Bensusan - Walltz For Paula
TTITLE13=Chet Atkins and Marcel Dadi - Winter Walking - Baby's Coming Home
EXTD=
EXTT0=
EXTT1=
EXTT2=
EXTT3=
EXTT4=
EXTT5=
EXTT6=
EXTT7=
EXTT8=
EXTT9=
EXTT10=
EXTT11=
EXTT12=
EXTT13=
PLAYORDER=
